<svg width="1280" height="800" viewBox="0 0 1280 800" fill="none" xmlns="http://www.w3.org/2000/svg">
<rect width="1280" height="800" fill="white"/>
<path d="M603.5 171.5L557 230L523 300L467.5 322L419 300L399.5 247L440.5 230L482 171.5V118L404.5 154.5L368 171.5L305 154.5L244 132.5L263.5 205.5L336.5 259V385L404.5 499L496.5 543L482 618H557L603.5 564.5L722 543L739 601H770.5L841 499L814.5 426.5V300L841 230L770.5 154.5L702.5 132.5L603.5 171.5Z" stroke="black"/>
<path d="M681.57 207.576C665.273 210.836 668.222 266.606 687.626 245.261C695.427 236.68 699.473 207.576 684.598 207.576" stroke="black" stroke-width="3" stroke-linecap="round"/>
<path d="M775.445 210.605C766.586 211.712 769.389 225.556 769.389 231.802C769.389 241.599 766.306 249.972 778.474 249.972C793.474 249.972 793.615 245.662 793.615 231.802C793.615 218.706 796.182 213.633 781.502 213.633" stroke="black" stroke-width="3" stroke-linecap="round"/>
<path d="M693.683 286.311C701.091 302.052 714.898 316.593 733.05 316.593C739.934 316.593 745.951 317.45 751.892 313.565C757.626 309.816 760.317 303.466 766.361 301.452" stroke="black" stroke-width="3" stroke-linecap="round"/>
</svg>
